<svg id="Layer_1" data-name="Layer 1" xmlns="http://www.w3.org/2000/svg" viewBox="0 0 512 512"><defs><style>.cls-1{fill:#141f38;}</style></defs><title>wallet-outline</title><path class="cls-1" d="M448,64H64a63.41,63.41,0,0,0-24.85,5.05A64.08,64.08,0,0,0,28.28,75q-1.28.86-2.51,1.79a64.83,64.83,0,0,0-13,13Q11.83,91,11,92.28a64.08,64.08,0,0,0-5.92,10.87A63.41,63.41,0,0,0,0,128V384a63.41,63.41,0,0,0,5.05,24.85A64.08,64.08,0,0,0,11,419.72q.86,1.28,1.79,2.51a64.83,64.83,0,0,0,13,13q1.23.92,2.51,1.79a64.08,64.08,0,0,0,10.87,5.92A63.41,63.41,0,0,0,64,448H448a64.19,64.19,0,0,0,64-64V128A64.19,64.19,0,0,0,448,64ZM29.39,400.63q-.81-1.68-1.46-3.44A38.21,38.21,0,0,1,25.6,384V128A38.44,38.44,0,0,1,64,89.6H396.8A38.44,38.44,0,0,1,435.2,128v38.4H396.8c-49.28,0-89.6,40.32-89.6,89.6s40.32,89.6,89.6,89.6h38.4V384a38.44,38.44,0,0,1-38.4,38.4H64A38.45,38.45,0,0,1,29.39,400.63ZM396.8,320a64,64,0,0,1,0-128h89.6V320Zm89.6,64A38.44,38.44,0,0,1,448,422.4h-.09A63.59,63.59,0,0,0,460.8,384V345.6h25.6ZM460.8,166.4V128a63.59,63.59,0,0,0-12.89-38.4H448A38.44,38.44,0,0,1,486.4,128v38.4Zm-64,51.2A38.4,38.4,0,1,0,435.2,256,38.4,38.4,0,0,0,396.8,217.6Zm0,51.2A12.8,12.8,0,1,1,409.6,256,12.81,12.81,0,0,1,396.8,268.8Z"/></svg>